<svg width="20" height="19" viewBox="0 0 20 19" fill="none" xmlns="http://www.w3.org/2000/svg">
<path fill-rule="evenodd" clip-rule="evenodd" d="M7.43643 5.30005C7.46392 5.30005 7.49174 5.30006 7.5199 5.30006L12.5618 5.30005C13.4832 5.29999 14.0369 5.29994 14.5036 5.37784C17.0778 5.80753 19.0314 7.93069 19.2458 10.5317C19.2847 11.0033 19.2387 11.555 19.1621 12.4733L19.1493 12.6266C19.0834 13.4187 19.0436 13.8961 18.9458 14.3101C18.4102 16.5781 16.5479 18.2917 14.2433 18.6371C13.8226 18.7001 13.3435 18.7001 12.5487 18.7001H7.44949C6.65469 18.7001 6.17558 18.7001 5.75492 18.6371C3.45025 18.2917 1.58796 16.5781 1.05235 14.3101C0.954592 13.8961 0.914836 13.4187 0.848883 12.6266C0.846958 12.6035 0.845011 12.5801 0.84304 12.5565C0.840702 12.5284 0.838389 12.5007 0.836104 12.4733C0.759514 11.555 0.713495 11.0033 0.752368 10.5317C0.966795 7.93069 2.92038 5.80753 5.49464 5.37784C5.96132 5.29994 6.51498 5.29999 7.43643 5.30005ZM7.5199 6.70006C6.49006 6.70006 6.06209 6.70249 5.72514 6.75874C3.78315 7.08289 2.3094 8.68457 2.14763 10.6468C2.11957 10.9872 2.15268 11.4139 2.2382 12.4402C2.31182 13.3236 2.34422 13.6891 2.41487 13.9883C2.81893 15.6993 4.22382 16.992 5.96243 17.2526C6.26647 17.2981 6.63344 17.3001 7.5199 17.3001H12.4783C13.3648 17.3001 13.7317 17.2981 14.0358 17.2526C15.7744 16.992 17.1793 15.6993 17.5833 13.9883C17.654 13.6891 17.6864 13.3236 17.76 12.4402C17.8455 11.4139 17.8786 10.9872 17.8506 10.6468C17.6888 8.68457 16.215 7.08289 14.2731 6.75874C13.9361 6.70249 13.5081 6.70006 12.4783 6.70006H7.5199Z" fill="#71717A"/>
<path fill-rule="evenodd" clip-rule="evenodd" d="M6.19882 5.50221L6.19888 5.50055L6.19962 5.47492C6.20052 5.45018 6.20239 5.41069 6.20626 5.35855C6.21403 5.25405 6.22972 5.10019 6.26128 4.91373C6.32495 4.5375 6.4502 4.04647 6.69224 3.56387C6.93296 3.08393 7.28221 2.62543 7.79169 2.28542C8.29666 1.94843 9.00025 1.70005 9.99883 1.70005C10.9974 1.70005 11.7 1.94843 12.2035 2.28509C12.7116 2.62476 13.0592 3.08282 13.2985 3.56248C13.5391 4.04483 13.6629 4.53568 13.7255 4.91187C13.7566 5.0983 13.7718 5.25213 13.7793 5.35663C13.7831 5.40876 13.7848 5.44825 13.7856 5.47298L13.7863 5.49861L13.7864 5.50143L13.7864 5.5009C13.7864 5.50059 13.7864 5.50027 14.4864 5.50005L13.7864 5.50027C13.7864 5.50098 13.7864 5.50169 13.7864 5.50241C13.7876 5.88802 14.1007 6.20017 14.4866 6.20005C14.8732 6.19993 15.1865 5.88643 15.1864 5.49983L14.5166 5.50004C15.1864 5.49982 15.1864 5.49946 15.1864 5.49909L15.1864 5.49825L15.1864 5.49626L15.1863 5.49103L15.1861 5.47567C15.1859 5.46328 15.1855 5.44665 15.1849 5.42604C15.1835 5.38485 15.1808 5.32767 15.1758 5.25675C15.1656 5.11515 15.1457 4.91742 15.1065 4.68198C15.0287 4.21441 14.8718 3.58026 14.5513 2.93761C14.2294 2.29228 13.7356 1.62534 12.9816 1.12126C12.2232 0.614168 11.2433 0.300049 9.99883 0.300049C8.75434 0.300049 7.7739 0.61417 7.01455 1.12092C6.25971 1.62467 5.76434 2.29117 5.44082 2.93623C5.11863 3.57862 4.96003 4.2126 4.88091 4.68012C4.84107 4.91553 4.82063 5.11324 4.81011 5.25483C4.80484 5.32574 4.80204 5.38292 4.80054 5.42411C4.79979 5.44471 4.79937 5.46135 4.79913 5.47373L4.7989 5.48909L4.79885 5.49432L4.79884 5.49632L4.79883 5.49716C4.79883 5.49753 4.79883 5.49788 5.46862 5.49996L4.79883 5.49789C4.79764 5.88449 5.11007 6.19885 5.49667 6.20005C5.88306 6.20124 6.19729 5.88914 6.19882 5.50284L6.19882 5.50414L6.19882 5.50337L6.19882 5.50284L6.19882 5.50221Z" fill="#71717A"/>
<path fill-rule="evenodd" clip-rule="evenodd" d="M9.99883 14.7001C9.61223 14.7001 9.29883 14.3867 9.29883 14.0001L9.29883 12.0001C9.29883 11.6135 9.61223 11.3001 9.99883 11.3001C10.3854 11.3001 10.6988 11.6135 10.6988 12.0001L10.6988 14.0001C10.6988 14.3867 10.3854 14.7001 9.99883 14.7001Z" fill="#71717A"/>
</svg>
