<svg width="24" height="24" viewBox="0 0 24 24" fill="none" xmlns="http://www.w3.org/2000/svg">
<path fill-rule="evenodd" clip-rule="evenodd" d="M9.96932 3.30005H14.0322C15.4057 3.30004 16.4795 3.30004 17.3418 3.37049C18.2188 3.44215 18.9386 3.59017 19.5885 3.92131C20.6611 4.46779 21.533 5.33978 22.0795 6.4123C22.4107 7.06221 22.5587 7.78201 22.6303 8.65906C22.7008 9.52137 22.7008 10.5951 22.7008 11.9686V12.0315C22.7008 13.405 22.7008 14.4787 22.6303 15.341C22.5587 16.2181 22.4107 16.9379 22.0795 17.5878C21.533 18.6603 20.6611 19.5323 19.5885 20.0788C18.9386 20.4099 18.2188 20.5579 17.3418 20.6296C16.4795 20.7001 15.4057 20.7001 14.0322 20.7001H9.96936C8.59584 20.7001 7.5221 20.7001 6.65979 20.6296C5.78274 20.5579 5.06294 20.4099 4.41304 20.0788C3.34051 19.5323 2.46852 18.6603 1.92204 17.5878C1.5909 16.9379 1.44288 16.2181 1.37123 15.341C1.30077 14.4787 1.30078 13.405 1.30078 12.0315V11.9686C1.30078 10.5951 1.30077 9.52136 1.37123 8.65906C1.44288 7.78201 1.5909 7.06221 1.92204 6.4123C2.46852 5.33978 3.34051 4.46779 4.41304 3.92131C5.06294 3.59017 5.78274 3.44215 6.65979 3.37049C7.52209 3.30004 8.59582 3.30004 9.96932 3.30005ZM6.77379 4.76585C5.98332 4.83043 5.46827 4.9549 5.04862 5.16872C4.23953 5.58098 3.58171 6.23879 3.16945 7.04789C2.95563 7.46754 2.83116 7.98259 2.76658 8.77306C2.70133 9.5717 2.70078 10.5884 2.70078 12C2.70078 13.4117 2.70133 14.4284 2.76658 15.227C2.83116 16.0175 2.95563 16.5326 3.16945 16.9522C3.58171 17.7613 4.23953 18.4191 5.04862 18.8314C5.46827 19.0452 5.98332 19.1697 6.77379 19.2343C7.57244 19.2995 8.5891 19.3 10.0008 19.3H14.0008C15.4125 19.3 16.4291 19.2995 17.2278 19.2343C18.0182 19.1697 18.5333 19.0452 18.9529 18.8314C19.762 18.4191 20.4199 17.7613 20.8321 16.9522C21.0459 16.5326 21.1704 16.0175 21.235 15.227C21.3002 14.4284 21.3008 13.4117 21.3008 12C21.3008 10.5884 21.3002 9.5717 21.235 8.77306C21.1704 7.98259 21.0459 7.46754 20.8321 7.04789C20.4199 6.23879 19.762 5.58098 18.9529 5.16872C18.5333 4.9549 18.0182 4.83043 17.2278 4.76585C16.4291 4.70059 15.4125 4.70005 14.0008 4.70005H10.0008C8.5891 4.70005 7.57244 4.70059 6.77379 4.76585Z" fill="#71717A"/>
<path fill-rule="evenodd" clip-rule="evenodd" d="M7.46931 9.54451C7.72091 9.25098 8.16282 9.21699 8.45635 9.46858L8.00079 10.0001L7.54524 10.5315C7.25171 10.2799 7.21772 9.83804 7.46931 9.54451ZM12.0008 12.2449C11.8891 12.1789 11.7433 12.0828 11.5685 11.9594C11.1874 11.6904 10.7159 11.3257 10.2506 10.9535C9.78727 10.5828 9.33842 10.2114 9.00484 9.93208C8.83821 9.79258 8.70073 9.6764 8.60505 9.59521L8.49453 9.50121L8.45635 9.46858L8.00079 10.0001C7.54524 10.5315 7.54519 10.5315 7.54524 10.5315L7.58592 10.5663L7.69928 10.6627C7.79695 10.7456 7.93681 10.8638 8.10613 11.0055C8.44442 11.2888 8.90182 11.6673 9.37601 12.0467C9.84822 12.4244 10.3455 12.8098 10.7612 13.1032C10.9677 13.2489 11.1662 13.3807 11.3381 13.4789C11.4234 13.5277 11.5149 13.5756 11.6058 13.6132C11.678 13.643 11.8264 13.7001 12.0008 13.7001C12.1752 13.7001 12.3236 13.643 12.3958 13.6132C12.4866 13.5756 12.5782 13.5277 12.6635 13.4789C12.8353 13.3807 13.0339 13.2489 13.2404 13.1032C13.6561 12.8098 14.1534 12.4244 14.6256 12.0467C15.0998 11.6673 15.5572 11.2888 15.8955 11.0055C16.0648 10.8638 16.2046 10.7456 16.3023 10.6627L16.4157 10.5663L16.4556 10.5322C16.4556 10.5322 16.4563 10.5315 16.0008 10.0001L16.4563 10.5315C16.7499 10.2799 16.7839 9.83804 16.5323 9.54451C16.2807 9.25098 15.8388 9.21699 15.5452 9.46858L15.5071 9.50121L15.3965 9.59521C15.3009 9.6764 15.1634 9.79258 14.9968 9.93208C14.6632 10.2114 14.2143 10.5828 13.751 10.9535C13.2857 11.3257 12.8142 11.6904 12.4331 11.9594C12.2582 12.0828 12.1125 12.1789 12.0008 12.2449ZM12.1411 12.3196C12.1411 12.3196 12.1411 12.3196 12.1411 12.3196V12.3196Z" fill="#71717A"/>
</svg>
