<svg width="24" height="24" viewBox="0 0 24 24" fill="none" xmlns="http://www.w3.org/2000/svg">
<path fill-rule="evenodd" clip-rule="evenodd" d="M16.2558 14.9564C16.1724 14.9562 16.0272 14.9667 15.6437 14.9961C14.4416 15.0883 13.0486 15.1668 11.7849 15.1668C10.5742 15.1668 9.22843 15.0947 8.04275 15.0077C7.64516 14.9785 7.49418 14.9681 7.40909 14.9687C6.26886 14.9775 5.38368 15.7142 5.16817 16.834C5.15202 16.9178 5.13713 17.048 5.09868 17.3986C5.06167 17.7361 5.04893 17.8586 5.04699 17.9526C5.022 19.162 5.93812 20.1841 7.14305 20.2911C7.23666 20.2994 7.35989 20.3001 7.6994 20.3001L15.997 20.3001C16.3702 20.3001 16.5062 20.2993 16.6066 20.2897C17.8659 20.1696 18.7919 19.055 18.679 17.7949C18.6701 17.6945 18.6459 17.5607 18.5775 17.1938C18.5154 16.8609 18.4918 16.7378 18.47 16.657C18.1884 15.6137 17.3364 14.9593 16.2558 14.9564ZM15.5846 13.5965C15.9051 13.5719 16.1123 13.556 16.2596 13.5564C17.9715 13.5611 19.3755 14.6394 19.8217 16.2922C19.86 16.4343 19.8943 16.6179 19.9463 16.8971L19.9617 16.9798C20.0194 17.2888 20.0577 17.4941 20.0735 17.67C20.255 19.6971 18.7654 21.4902 16.7395 21.6834C16.5636 21.7002 16.3547 21.7001 16.0404 21.7001L7.6994 21.7001C7.68616 21.7001 7.67312 21.7001 7.66028 21.7001C7.37394 21.7001 7.1831 21.7002 7.01922 21.6856C5.08084 21.5135 3.60708 19.8693 3.64729 17.9237C3.65069 17.7592 3.67151 17.5695 3.70275 17.2848C3.70416 17.2721 3.70558 17.2591 3.70702 17.246C3.70859 17.2316 3.71014 17.2175 3.71166 17.2036C3.74386 16.9097 3.76498 16.717 3.7934 16.5694C4.135 14.7945 5.59101 13.5826 7.39837 13.5688C7.54875 13.5676 7.76312 13.5834 8.09531 13.6078C8.11166 13.609 8.12829 13.6102 8.14521 13.6114C9.31512 13.6973 10.6228 13.7668 11.7849 13.7668C12.9978 13.7668 14.3511 13.6911 15.5367 13.6002L15.5846 13.5965Z" fill="#71717A"/>
<path fill-rule="evenodd" clip-rule="evenodd" d="M7.29883 7.00005C7.29883 4.40431 9.40309 2.30005 11.9988 2.30005C14.5946 2.30005 16.6988 4.40431 16.6988 7.00005V7.57148C16.6988 9.85162 14.8504 11.7 12.5703 11.7H11.4274C9.14725 11.7 7.29883 9.85162 7.29883 7.57148V7.00005ZM11.9988 3.70005C10.1763 3.70005 8.69883 5.17751 8.69883 7.00005V7.57148C8.69883 9.07843 9.92045 10.3 11.4274 10.3H12.5703C14.0772 10.3 15.2988 9.07843 15.2988 7.57148V7.00005C15.2988 5.17751 13.8214 3.70005 11.9988 3.70005Z" fill="#71717A"/>
</svg>
