<svg width="17" height="19" viewBox="0 0 17 19" fill="none" xmlns="http://www.w3.org/2000/svg">
<path d="M1.40336 14.3222C1.44001 13.9879 1.45834 13.8208 1.48129 13.7015C1.75985 12.2543 2.93044 11.2799 4.40424 11.2686C4.52567 11.2677 4.71528 11.2816 5.09449 11.3095C6.27228 11.3959 7.59901 11.4667 8.78543 11.4667C10.0237 11.4667 11.3969 11.3896 12.5907 11.298C12.9564 11.27 13.1392 11.256 13.2582 11.2563C14.6545 11.2601 15.7825 12.1264 16.1464 13.4745C16.1773 13.5893 16.2069 13.748 16.2661 14.0653C16.3314 14.4153 16.364 14.5902 16.3768 14.7324C16.524 16.3759 15.3162 17.8298 13.6735 17.9865C13.5314 18 13.3535 18 12.9975 18L4.6999 18C4.37601 18 4.21407 18 4.08165 17.9882C2.50999 17.8487 1.31505 16.5155 1.34765 14.938C1.35039 14.8051 1.36805 14.6441 1.40336 14.3222Z" fill="#FAFAFA"/>
<path fill-rule="evenodd" clip-rule="evenodd" d="M13.2568 11.7563C13.1633 11.756 13.0073 11.7676 12.6289 11.7966C11.4292 11.8885 10.0418 11.9667 8.78542 11.9667C7.58164 11.9667 6.24132 11.895 5.05788 11.8081C4.66555 11.7793 4.50353 11.7679 4.40806 11.7686C3.17252 11.7781 2.2058 12.5827 1.97227 13.7961C1.95418 13.89 1.9383 14.0307 1.90037 14.3767C1.86384 14.7097 1.8497 14.8433 1.84753 14.9483C1.82037 16.2629 2.81615 17.3739 4.12586 17.4902C4.23056 17.4995 4.36485 17.5 4.6999 17.5L12.9975 17.5C13.3658 17.5 13.5138 17.4994 13.626 17.4887C14.9949 17.3582 16.0014 16.1466 15.8787 14.777C15.8687 14.6647 15.8421 14.5191 15.7746 14.157C15.7133 13.8286 15.6881 13.6953 15.6636 13.6048C15.3585 12.4744 14.4277 11.7595 13.2568 11.7563ZM12.5904 10.7966C12.9207 10.7712 13.1205 10.7559 13.2595 10.7563C14.8813 10.7607 16.2064 11.7785 16.6291 13.3442C16.6653 13.4784 16.6981 13.6546 16.7517 13.942L16.7639 14.0073C16.8232 14.3252 16.8599 14.5216 16.8748 14.6878C17.0465 16.6052 15.6374 18.3014 13.721 18.4842C13.5549 18.5 13.3551 18.5 13.0318 18.5L4.66899 18.5C4.37453 18.5 4.19221 18.5 4.03741 18.4863C2.20381 18.3235 0.809713 16.7681 0.847745 14.9277C0.850955 14.7723 0.870841 14.5911 0.902956 14.2984C0.904065 14.2883 0.905189 14.278 0.906328 14.2677C0.907572 14.2563 0.908798 14.2451 0.910007 14.2341C0.943172 13.9315 0.963459 13.7465 0.990295 13.607C1.31388 11.9258 2.68835 10.7818 4.4004 10.7687C4.54241 10.7676 4.7492 10.7828 5.0915 10.8079L5.13107 10.8108C6.30323 10.8968 7.61637 10.9667 8.78542 10.9667C10.0056 10.9667 11.3646 10.8906 12.5524 10.7995L12.5904 10.7966Z" fill="#FAFAFA"/>
<path d="M5.00001 4C5.00001 1.79086 6.79087 0 9.00001 0C11.2091 0 13 1.79086 13 4V4.57143C13 6.46498 11.465 8 9.57144 8H8.42858C6.53503 8 5.00001 6.46498 5.00001 4.57143V4Z" fill="#FAFAFA"/>
</svg>
